<?xml version="1.0" encoding="UTF-8"?>
<svg id="Camada_1" xmlns="http://www.w3.org/2000/svg" version="1.1" xmlns:cc="http://creativecommons.org/ns#" xmlns:rdf="http://www.w3.org/1999/02/22-rdf-syntax-ns#" xmlns:xlink="http://www.w3.org/1999/xlink" viewBox="0 0 250 250">
  <!-- Generator: Adobe Illustrator 30.1.0, SVG Export Plug-In . SVG Version: 2.1.1 Build 136)  -->
  <defs>
    <style>
      .st0 {
        fill: #0081fb;
      }

      .st1 {
        fill: url(#Gradiente_sem_nome_2);
      }

      .st2 {
        fill: url(#Gradiente_sem_nome);
      }
    </style>
    <linearGradient id="Gradiente_sem_nome" data-name="Gradiente sem nome" x1="54.94" y1="130.26" x2="225.26" y2="121.66" gradientTransform="translate(0 251) scale(1 -1)" gradientUnits="userSpaceOnUse">
      <stop offset="0" stop-color="#0064e1"/>
      <stop offset=".4" stop-color="#0064e1"/>
      <stop offset=".83" stop-color="#0073ee"/>
      <stop offset="1" stop-color="#0082fb"/>
    </linearGradient>
    <linearGradient id="Gradiente_sem_nome_2" data-name="Gradiente sem nome 2" x1="36.95" y1="88.58" x2="36.95" y2="151.38" gradientTransform="translate(0 251) scale(1 -1)" gradientUnits="userSpaceOnUse">
      <stop offset="0" stop-color="#0082fb"/>
      <stop offset="1" stop-color="#0064e0"/>
    </linearGradient>
  </defs>
  <path id="Logo0" class="st0" d="M28.04,151.2c0,9.44,2.07,16.7,4.78,21.08,3.55,5.75,8.85,8.18,14.25,8.18,6.97,0,13.34-1.73,25.63-18.72,9.84-13.62,21.44-32.73,29.24-44.71l13.21-20.3c9.18-14.1,19.8-29.77,31.98-40.39,9.94-8.67,20.67-13.49,31.47-13.49,18.12,0,35.39,10.5,48.6,30.2,14.46,21.57,21.48,48.75,21.48,76.79,0,16.67-3.29,28.92-8.88,38.6-5.4,9.36-15.93,18.71-33.64,18.71v-26.68c15.17,0,18.95-13.94,18.95-29.88,0-22.73-5.3-47.95-16.97-65.97-8.28-12.78-19.02-20.59-30.83-20.59-12.77,0-23.05,9.63-34.61,26.81-6.14,9.13-12.45,20.25-19.53,32.8l-7.79,13.81c-15.66,27.76-19.62,34.08-27.45,44.52-13.72,18.27-25.44,25.2-40.86,25.2-18.3,0-29.87-7.92-37.03-19.86-5.85-9.73-8.72-22.49-8.72-37.04l26.72.95Z"/>
  <path id="Logo1" class="st2" d="M22.39,74.94c12.25-18.88,29.93-32.09,50.2-32.09,11.74,0,23.41,3.48,35.6,13.43,13.33,10.88,27.54,28.8,45.27,58.33l6.36,10.6c15.35,25.57,24.08,38.72,29.19,44.92,6.57,7.97,11.17,10.34,17.15,10.34,15.17,0,18.95-13.94,18.95-29.88l23.57-.74c0,16.67-3.29,28.92-8.88,38.6-5.4,9.36-15.93,18.71-33.64,18.71-11.01,0-20.77-2.39-31.55-12.57-8.29-7.81-17.99-21.69-25.44-34.16l-22.18-37.06c-11.13-18.6-21.34-32.46-27.25-38.74-6.36-6.75-14.53-14.91-27.57-14.91-10.55,0-19.52,7.41-27.02,18.74l-22.75-13.51Z"/>
  <path id="Logo2" class="st1" d="M72.16,69.72c-10.55,0-19.52,7.41-27.02,18.74-10.61,16.01-17.1,39.85-17.1,62.75,0,9.44,2.07,16.7,4.78,21.08l-22.78,15c-5.85-9.73-8.72-22.49-8.72-37.04,0-26.45,7.26-54.02,21.07-75.31,12.25-18.88,29.93-32.09,50.2-32.09l-.43,26.86Z"/>
</svg>