<?xml version="1.0" encoding="UTF-8"?>
<svg id="a" data-name="Camada 1" xmlns="http://www.w3.org/2000/svg" viewBox="0 0 512 512">
  <path d="M479.63,166.23c-15.32-12.3-36.33-18.45-63-18.45h-87.55c-2.09,0-3.9.74-5.46,2.19-1.57,1.47-2.35,3.34-2.35,5.63v29.91l58.17,159.57v-54.72h37.2c26.89,0,47.94-5.88,63.16-17.67,15.21-11.76,22.82-29.33,22.82-52.68s-7.66-41.47-22.98-53.78ZM436.64,240.18c-5.22,4.68-12.41,7.04-21.58,7.04h-36.57v-55.97h36.57c9.8,0,17.15,2.56,22.05,7.67,4.89,5.1,7.35,11.93,7.35,20.48,0,9.16-2.61,16.09-7.82,20.79Z" style="fill: #121212;"/>
  <path d="M367.94,357.27l-73.17-200.73c-.62-2.5-1.98-4.59-4.06-6.26s-4.79-2.5-8.13-2.5h-46.27c-3.34,0-6.05.83-8.13,2.5-2.09,1.67-3.44,3.75-4.06,6.26l-55.18,150.75h54.53l35.98-106.67,53.78,159.46c1.67,4.38,5,6.57,10.01,6.57h38.46c1.87,0,3.49-.67,4.84-2.03,1.36-1.35,2.03-2.86,2.03-4.53l-.62-2.81Z" style="fill: #121212;"/>
  <path d="M283.29,320.51H97.22l94.4-118.52,3.47-4.36c2.71-3.54,4.06-7.08,4.06-10.64v-30.32c0-2.29-.73-4.16-2.19-5.63-1.47-1.45-3.34-2.19-5.63-2.19H33.44c-2.09,0-3.9.73-5.47,2.19-1.57,1.47-2.35,3.34-2.35,5.63v30.96c0,2.09.78,3.9,2.35,5.47,1.57,1.57,3.38,2.35,5.47,2.35h94.74l-100.68,122.56c-3.14,3.12-4.69,6.88-4.69,11.26v30.32c0,2.29.72,4.22,2.19,5.79,1.45,1.56,3.33,2.35,5.63,2.35h268.59l-15.93-47.21Z" style="fill: #121212;"/>
</svg>