<?xml version="1.0" encoding="UTF-8"?>
<svg id="Camada_1" xmlns="http://www.w3.org/2000/svg" version="1.1" viewBox="0 0 512 512">
  <!-- Generator: Adobe Illustrator 29.4.0, SVG Export Plug-In . SVG Version: 2.1.0 Build 152)  -->
  <defs>
    <style>
      .st0 {
        fill: #171717;
      }
    </style>
  </defs>
  <path class="st0" d="M203.73,161.22c13.72,13.58,20.58,31.43,20.58,53.56v150.5c0,2.95-1.48,4.43-4.43,4.43h-33.64c-2.95,0-4.43-1.47-4.43-4.43v-9.74c0-.59-.22-1.03-.66-1.33-.44-.29-.96-.14-1.55.44-10.33,12.39-25.53,18.59-45.59,18.59-16.82,0-31.65-4.79-44.49-14.39-12.84-9.59-19.26-26.63-19.26-51.13s7.75-44.49,23.24-56.44c15.49-11.95,35.78-17.93,60.86-17.93h25.67c1.18,0,1.77-.59,1.77-1.77v-12.84c0-12.39-2.95-22.35-8.85-29.88-5.91-7.53-13.58-11.29-23.02-11.29-7.38,0-13.58,2.51-18.59,7.52-5.02,5.02-7.97,11.51-8.85,19.48,0,2.95-1.48,4.43-4.43,4.43h-35.85c-2.95,0-4.43-1.47-4.43-4.43,1.47-18.88,9-34.23,22.58-46.04,13.57-11.8,30.39-17.71,50.46-17.71,21.54,0,39.17,6.79,52.9,20.36v.04ZM170.31,326.33c7.67-6.49,11.51-15.64,11.51-27.44v-30.1c0-1.18-.59-1.77-1.77-1.77h-27c-11.81,0-21.25,3.17-28.33,9.52-7.08,6.35-10.62,15.57-10.62,27.67,0,10.62,2.66,18.59,7.97,23.9s12.39,7.97,21.25,7.97c10.33,0,19.32-3.24,27-9.74h0Z"/>
  <path class="st0" d="M421.28,55.59h-126.65v-31.79h22.3c1.49,0,2.7-1.21,2.7-2.7V2.7c0-1.49-1.21-2.7-2.7-2.7h-68.4c-1.49,0-2.7,1.21-2.7,2.7v18.39c0,1.49,1.21,2.7,2.7,2.7h22.3v31.79H41.78c-23.04,0-41.78,18.75-41.78,41.78v313.5c0,23.04,18.74,41.78,41.78,41.78h229.06v31.79h-21.63c-1.49,0-2.7,1.21-2.7,2.7v18.39c0,1.49,1.21,2.7,2.7,2.7h68.4c1.49,0,2.7-1.21,2.7-2.7v-18.39c0-1.49-1.21-2.7-2.7-2.7h-22.97v-31.79h126.65c23.04,0,41.78-18.74,41.78-41.78V97.36c0-23.04-18.74-41.78-41.78-41.78h0ZM41.78,428.64c-9.8,0-17.78-7.97-17.78-17.78V97.36c0-9.8,7.97-17.78,17.78-17.78h229.06v349.06H41.78ZM439.06,410.86c0,9.8-7.97,17.78-17.78,17.78h-126.65V79.59h126.65c9.8,0,17.78,7.97,17.78,17.78v313.5h0Z"/>
</svg>